<svg width="71" height="70" viewBox="0 0 71 70" fill="none" xmlns="http://www.w3.org/2000/svg">
<g clip-path="url(#clip0_2_126)">
<path d="M37.6348 30.625H32.6348C31.9718 30.625 31.3359 30.8555 30.8671 31.2657C30.3982 31.6759 30.1348 32.2323 30.1348 32.8125V37.1875C30.1348 37.7677 30.3982 38.3241 30.8671 38.7343C31.3359 39.1445 31.9718 39.375 32.6348 39.375H37.6348C38.2979 39.375 38.9338 39.1445 39.4026 38.7343C39.8714 38.3241 40.1348 37.7677 40.1348 37.1875V32.8125C40.1348 32.2323 39.8714 31.6759 39.4026 31.2657C38.9338 30.8555 38.2979 30.625 37.6348 30.625ZM52.6348 30.625H47.6348C46.9718 30.625 46.3359 30.8555 45.8671 31.2657C45.3982 31.6759 45.1348 32.2323 45.1348 32.8125V37.1875C45.1348 37.7677 45.3982 38.3241 45.8671 38.7343C46.3359 39.1445 46.9718 39.375 47.6348 39.375H52.6348C53.2979 39.375 53.9338 39.1445 54.4026 38.7343C54.8714 38.3241 55.1348 37.7677 55.1348 37.1875V32.8125C55.1348 32.2323 54.8714 31.6759 54.4026 31.2657C53.9338 30.8555 53.2979 30.625 52.6348 30.625ZM67.6348 30.625H62.6348C61.9718 30.625 61.3359 30.8555 60.8671 31.2657C60.3982 31.6759 60.1348 32.2323 60.1348 32.8125V37.1875C60.1348 37.7677 60.3982 38.3241 60.8671 38.7343C61.3359 39.1445 61.9718 39.375 62.6348 39.375H67.6348C68.2979 39.375 68.9338 39.1445 69.4026 38.7343C69.8714 38.3241 70.1348 37.7677 70.1348 37.1875V32.8125C70.1348 32.2323 69.8714 31.6759 69.4026 31.2657C68.9338 30.8555 68.2979 30.625 67.6348 30.625ZM22.6348 30.625H17.6348C16.9718 30.625 16.3359 30.8555 15.8671 31.2657C15.3982 31.6759 15.1348 32.2323 15.1348 32.8125V37.1875C15.1348 37.7677 15.3982 38.3241 15.8671 38.7343C16.3359 39.1445 16.9718 39.375 17.6348 39.375H22.6348C23.2979 39.375 23.9338 39.1445 24.4026 38.7343C24.8714 38.3241 25.1348 37.7677 25.1348 37.1875V32.8125C25.1348 32.2323 24.8714 31.6759 24.4026 31.2657C23.9338 30.8555 23.2979 30.625 22.6348 30.625ZM37.6348 56.875H32.6348C31.9718 56.875 31.3359 57.1055 30.8671 57.5157C30.3982 57.9259 30.1348 58.4823 30.1348 59.0625V63.4375C30.1348 64.0177 30.3982 64.5741 30.8671 64.9843C31.3359 65.3945 31.9718 65.625 32.6348 65.625H37.6348C38.2979 65.625 38.9338 65.3945 39.4026 64.9843C39.8714 64.5741 40.1348 64.0177 40.1348 63.4375V59.0625C40.1348 58.4823 39.8714 57.9259 39.4026 57.5157C38.9338 57.1055 38.2979 56.875 37.6348 56.875ZM52.6348 56.875H47.6348C46.9718 56.875 46.3359 57.1055 45.8671 57.5157C45.3982 57.9259 45.1348 58.4823 45.1348 59.0625V63.4375C45.1348 64.0177 45.3982 64.5741 45.8671 64.9843C46.3359 65.3945 46.9718 65.625 47.6348 65.625H52.6348C53.2979 65.625 53.9338 65.3945 54.4026 64.9843C54.8714 64.5741 55.1348 64.0177 55.1348 63.4375V59.0625C55.1348 58.4823 54.8714 57.9259 54.4026 57.5157C53.9338 57.1055 53.2979 56.875 52.6348 56.875ZM67.6348 56.875H62.6348C61.9718 56.875 61.3359 57.1055 60.8671 57.5157C60.3982 57.9259 60.1348 58.4823 60.1348 59.0625V63.4375C60.1348 64.0177 60.3982 64.5741 60.8671 64.9843C61.3359 65.3945 61.9718 65.625 62.6348 65.625H67.6348C68.2979 65.625 68.9338 65.3945 69.4026 64.9843C69.8714 64.5741 70.1348 64.0177 70.1348 63.4375V59.0625C70.1348 58.4823 69.8714 57.9259 69.4026 57.5157C68.9338 57.1055 68.2979 56.875 67.6348 56.875ZM67.6348 43.75H62.6348C61.9718 43.75 61.3359 43.9805 60.8671 44.3907C60.3982 44.8009 60.1348 45.3573 60.1348 45.9375V50.3125C60.1348 50.8927 60.3982 51.4491 60.8671 51.8593C61.3359 52.2695 61.9718 52.5 62.6348 52.5H67.6348C68.2979 52.5 68.9338 52.2695 69.4026 51.8593C69.8714 51.4491 70.1348 50.8927 70.1348 50.3125V45.9375C70.1348 45.3573 69.8714 44.8009 69.4026 44.3907C68.9338 43.9805 68.2979 43.75 67.6348 43.75ZM67.6348 17.5H62.6348C61.9718 17.5 61.3359 17.7305 60.8671 18.1407C60.3982 18.5509 60.1348 19.1073 60.1348 19.6875V24.0625C60.1348 24.6427 60.3982 25.1991 60.8671 25.6093C61.3359 26.0195 61.9718 26.25 62.6348 26.25H67.6348C68.2979 26.25 68.9338 26.0195 69.4026 25.6093C69.8714 25.1991 70.1348 24.6427 70.1348 24.0625V19.6875C70.1348 19.1073 69.8714 18.5509 69.4026 18.1407C68.9338 17.7305 68.2979 17.5 67.6348 17.5ZM37.6348 43.75H32.6348C31.9718 43.75 31.3359 43.9805 30.8671 44.3907C30.3982 44.8009 30.1348 45.3573 30.1348 45.9375V50.3125C30.1348 50.8927 30.3982 51.4491 30.8671 51.8593C31.3359 52.2695 31.9718 52.5 32.6348 52.5H37.6348C38.2979 52.5 38.9338 52.2695 39.4026 51.8593C39.8714 51.4491 40.1348 50.8927 40.1348 50.3125V45.9375C40.1348 45.3573 39.8714 44.8009 39.4026 44.3907C38.9338 43.9805 38.2979 43.75 37.6348 43.75ZM37.6348 17.5H32.6348C31.9718 17.5 31.3359 17.7305 30.8671 18.1407C30.3982 18.5509 30.1348 19.1073 30.1348 19.6875V24.0625C30.1348 24.6427 30.3982 25.1991 30.8671 25.6093C31.3359 26.0195 31.9718 26.25 32.6348 26.25H37.6348C38.2979 26.25 38.9338 26.0195 39.4026 25.6093C39.8714 25.1991 40.1348 24.6427 40.1348 24.0625V19.6875C40.1348 19.1073 39.8714 18.5509 39.4026 18.1407C38.9338 17.7305 38.2979 17.5 37.6348 17.5ZM22.6348 56.875H17.6348C16.9718 56.875 16.3359 57.1055 15.8671 57.5157C15.3982 57.9259 15.1348 58.4823 15.1348 59.0625V63.4375C15.1348 64.0177 15.3982 64.5741 15.8671 64.9843C16.3359 65.3945 16.9718 65.625 17.6348 65.625H22.6348C23.2979 65.625 23.9338 65.3945 24.4026 64.9843C24.8714 64.5741 25.1348 64.0177 25.1348 63.4375V59.0625C25.1348 58.4823 24.8714 57.9259 24.4026 57.5157C23.9338 57.1055 23.2979 56.875 22.6348 56.875ZM37.6348 4.375H32.6348C31.9718 4.375 31.3359 4.60547 30.8671 5.0157C30.3982 5.42594 30.1348 5.98234 30.1348 6.5625V10.9375C30.1348 11.5177 30.3982 12.0741 30.8671 12.4843C31.3359 12.8945 31.9718 13.125 32.6348 13.125H37.6348C38.2979 13.125 38.9338 12.8945 39.4026 12.4843C39.8714 12.0741 40.1348 11.5177 40.1348 10.9375V6.5625C40.1348 5.98234 39.8714 5.42594 39.4026 5.0157C38.9338 4.60547 38.2979 4.375 37.6348 4.375ZM52.6348 4.375H47.6348C46.9718 4.375 46.3359 4.60547 45.8671 5.0157C45.3982 5.42594 45.1348 5.98234 45.1348 6.5625V10.9375C45.1348 11.5177 45.3982 12.0741 45.8671 12.4843C46.3359 12.8945 46.9718 13.125 47.6348 13.125H52.6348C53.2979 13.125 53.9338 12.8945 54.4026 12.4843C54.8714 12.0741 55.1348 11.5177 55.1348 10.9375V6.5625C55.1348 5.98234 54.8714 5.42594 54.4026 5.0157C53.9338 4.60547 53.2979 4.375 52.6348 4.375ZM67.6348 4.375H62.6348C61.9718 4.375 61.3359 4.60547 60.8671 5.0157C60.3982 5.42594 60.1348 5.98234 60.1348 6.5625V10.9375C60.1348 11.5177 60.3982 12.0741 60.8671 12.4843C61.3359 12.8945 61.9718 13.125 62.6348 13.125H67.6348C68.2979 13.125 68.9338 12.8945 69.4026 12.4843C69.8714 12.0741 70.1348 11.5177 70.1348 10.9375V6.5625C70.1348 5.98234 69.8714 5.42594 69.4026 5.0157C68.9338 4.60547 68.2979 4.375 67.6348 4.375ZM7.63483 30.625H2.63483C1.97179 30.625 1.3359 30.8555 0.86706 31.2657C0.398219 31.6759 0.134827 32.2323 0.134827 32.8125L0.134827 37.1875C0.134827 37.7677 0.398219 38.3241 0.86706 38.7343C1.3359 39.1445 1.97179 39.375 2.63483 39.375H7.63483C8.29787 39.375 8.93375 39.1445 9.40259 38.7343C9.87143 38.3241 10.1348 37.7677 10.1348 37.1875V32.8125C10.1348 32.2323 9.87143 31.6759 9.40259 31.2657C8.93375 30.8555 8.29787 30.625 7.63483 30.625ZM7.63483 56.875H2.63483C1.97179 56.875 1.3359 57.1055 0.86706 57.5157C0.398219 57.9259 0.134827 58.4823 0.134827 59.0625L0.134827 63.4375C0.134827 64.0177 0.398219 64.5741 0.86706 64.9843C1.3359 65.3945 1.97179 65.625 2.63483 65.625H7.63483C8.29787 65.625 8.93375 65.3945 9.40259 64.9843C9.87143 64.5741 10.1348 64.0177 10.1348 63.4375V59.0625C10.1348 58.4823 9.87143 57.9259 9.40259 57.5157C8.93375 57.1055 8.29787 56.875 7.63483 56.875ZM7.63483 43.75H2.63483C1.97179 43.75 1.3359 43.9805 0.86706 44.3907C0.398219 44.8009 0.134827 45.3573 0.134827 45.9375L0.134827 50.3125C0.134827 50.8927 0.398219 51.4491 0.86706 51.8593C1.3359 52.2695 1.97179 52.5 2.63483 52.5H7.63483C8.29787 52.5 8.93375 52.2695 9.40259 51.8593C9.87143 51.4491 10.1348 50.8927 10.1348 50.3125V45.9375C10.1348 45.3573 9.87143 44.8009 9.40259 44.3907C8.93375 43.9805 8.29787 43.75 7.63483 43.75ZM7.63483 17.5H2.63483C1.97179 17.5 1.3359 17.7305 0.86706 18.1407C0.398219 18.5509 0.134827 19.1073 0.134827 19.6875L0.134827 24.0625C0.134827 24.6427 0.398219 25.1991 0.86706 25.6093C1.3359 26.0195 1.97179 26.25 2.63483 26.25H7.63483C8.29787 26.25 8.93375 26.0195 9.40259 25.6093C9.87143 25.1991 10.1348 24.6427 10.1348 24.0625V19.6875C10.1348 19.1073 9.87143 18.5509 9.40259 18.1407C8.93375 17.7305 8.29787 17.5 7.63483 17.5ZM7.63483 4.375H2.63483C1.97179 4.375 1.3359 4.60547 0.86706 5.0157C0.398219 5.42594 0.134827 5.98234 0.134827 6.5625L0.134827 10.9375C0.134827 11.5177 0.398219 12.0741 0.86706 12.4843C1.3359 12.8945 1.97179 13.125 2.63483 13.125H7.63483C8.29787 13.125 8.93375 12.8945 9.40259 12.4843C9.87143 12.0741 10.1348 11.5177 10.1348 10.9375V6.5625C10.1348 5.98234 9.87143 5.42594 9.40259 5.0157C8.93375 4.60547 8.29787 4.375 7.63483 4.375ZM22.6348 4.375H17.6348C16.9718 4.375 16.3359 4.60547 15.8671 5.0157C15.3982 5.42594 15.1348 5.98234 15.1348 6.5625V10.9375C15.1348 11.5177 15.3982 12.0741 15.8671 12.4843C16.3359 12.8945 16.9718 13.125 17.6348 13.125H22.6348C23.2979 13.125 23.9338 12.8945 24.4026 12.4843C24.8714 12.0741 25.1348 11.5177 25.1348 10.9375V6.5625C25.1348 5.98234 24.8714 5.42594 24.4026 5.0157C23.9338 4.60547 23.2979 4.375 22.6348 4.375Z" fill="#FF5E14"/>
</g>
<defs>
<clipPath id="clip0_2_126">
<rect width="70" height="70" fill="white" transform="translate(0.134827)"/>
</clipPath>
</defs>
</svg>
