<svg width="327" height="185" viewBox="0 0 327 185" fill="none" xmlns="http://www.w3.org/2000/svg">
<path d="M117.588 81.346H123.103V103.736H117.588V81.346ZM125.291 95.282C125.291 89.7445 128.673 86.4405 133.894 86.4405C139.115 86.4405 142.498 89.7445 142.498 95.282C142.498 100.82 139.189 104.142 133.894 104.142C128.6 104.142 125.291 100.912 125.291 95.282ZM136.965 95.282C136.965 92.2364 135.77 90.446 133.894 90.446C132.019 90.446 130.843 92.2918 130.843 95.282C130.843 98.2723 132.001 100.081 133.894 100.081C135.788 100.081 136.965 98.383 136.965 95.3005V95.282ZM144.575 104.825H149.87C150.122 105.387 150.548 105.852 151.085 106.152C151.621 106.451 152.24 106.568 152.848 106.486C154.944 106.486 156.047 105.342 156.047 103.681V100.58H155.937C155.497 101.53 154.784 102.326 153.89 102.866C152.995 103.406 151.96 103.664 150.918 103.607C146.892 103.607 144.226 100.524 144.226 95.2267C144.226 89.9291 146.763 86.5882 150.991 86.5882C152.066 86.5459 153.128 86.8344 154.035 87.415C154.942 87.9956 155.65 88.8406 156.065 89.8368V86.7543H161.581V103.551C161.581 107.594 158.033 110.104 152.793 110.104C147.921 110.104 144.888 107.908 144.575 104.843V104.825ZM156.065 95.2636C156.065 92.5687 154.834 90.8705 152.885 90.8705C150.936 90.8705 149.741 92.5502 149.741 95.2636C149.741 97.9769 150.918 99.509 152.885 99.509C154.852 99.509 156.065 98.0139 156.065 95.282V95.2636ZM163.658 95.2636C163.658 89.7261 167.041 86.4221 172.262 86.4221C177.483 86.4221 180.884 89.7261 180.884 95.2636C180.884 100.801 177.575 104.124 172.262 104.124C166.949 104.124 163.658 100.912 163.658 95.282V95.2636ZM175.332 95.2636C175.332 92.218 174.137 90.4275 172.262 90.4275C170.387 90.4275 169.302 92.2918 169.302 95.3005C169.302 98.3092 170.46 100.1 172.335 100.1C174.21 100.1 175.332 98.383 175.332 95.3005V95.2636ZM182.98 82.7304C182.965 82.1713 183.116 81.6205 183.414 81.1478C183.712 80.6751 184.143 80.3018 184.652 80.0752C185.161 79.8486 185.726 79.7789 186.275 79.875C186.823 79.9711 187.331 80.2286 187.734 80.6149C188.137 81.0012 188.416 81.4989 188.537 82.0448C188.658 82.5908 188.615 83.1605 188.413 83.6817C188.21 84.2028 187.859 84.652 187.402 84.9723C186.946 85.2926 186.404 85.4695 185.848 85.4807C185.478 85.5061 185.108 85.4547 184.759 85.3295C184.411 85.2044 184.092 85.0082 183.823 84.7534C183.554 84.4986 183.34 84.1907 183.194 83.8489C183.049 83.5071 182.976 83.1388 182.98 82.7673V82.7304ZM182.98 86.7912H188.495V103.736H182.98V86.7912ZM208.515 95.2636C208.515 100.801 206.07 103.957 201.878 103.957C200.804 104.027 199.733 103.763 198.813 103.202C197.892 102.64 197.165 101.809 196.731 100.82H196.621V109.163H191.105V86.7543H196.621V89.7815H196.731C197.145 88.7757 197.858 87.9225 198.773 87.3379C199.687 86.7534 200.759 86.4658 201.842 86.5143C206.07 86.5882 208.589 89.763 208.589 95.3005L208.515 95.2636ZM203 95.2636C203 92.5687 201.768 90.852 199.838 90.852C197.907 90.852 196.676 92.5871 196.657 95.2636C196.639 97.94 197.907 99.6567 199.838 99.6567C201.768 99.6567 203 97.9769 203 95.3005V95.2636ZM217.983 86.4036C222.56 86.4036 225.336 88.5817 225.465 92.0703H220.446C220.446 90.8705 219.453 90.1137 217.928 90.1137C216.402 90.1137 215.722 90.7044 215.722 91.5719C215.722 92.4395 216.328 92.7163 217.56 92.9747L221.09 93.6946C224.454 94.4145 225.888 95.7804 225.888 98.3461C225.888 101.853 222.707 104.105 218.02 104.105C213.332 104.105 210.261 101.853 210.022 98.4015H215.335C215.501 99.6567 216.494 100.395 218.111 100.395C219.729 100.395 220.465 99.8597 220.465 98.9737C220.465 98.0877 219.95 97.9031 218.626 97.6262L215.446 96.9433C212.155 96.2603 210.427 94.5068 210.427 91.9226C210.464 88.6001 213.424 86.4405 217.983 86.4405V86.4036ZM244.29 103.699H238.977V100.543H238.867C238.575 101.602 237.931 102.53 237.041 103.171C236.152 103.813 235.07 104.129 233.977 104.068C233.139 104.116 232.3 103.983 231.518 103.677C230.736 103.372 230.028 102.901 229.443 102.298C228.857 101.694 228.407 100.971 228.124 100.178C227.841 99.3848 227.73 98.5398 227.8 97.7001V86.7543H233.315V96.4265C233.315 98.4384 234.344 99.509 236.054 99.509C236.455 99.5098 236.852 99.4246 237.217 99.259C237.582 99.0934 237.908 98.8513 238.173 98.5489C238.438 98.2465 238.635 97.8908 238.751 97.5057C238.868 97.1205 238.901 96.7148 238.849 96.3157V86.7543H244.364L244.29 103.699ZM246.956 86.7543H252.287V90.0214H252.398C252.69 88.9757 253.32 88.057 254.188 87.409C255.056 86.761 256.114 86.4204 257.196 86.4405C258.296 86.352 259.389 86.6827 260.258 87.3667C261.127 88.0508 261.707 89.0381 261.884 90.1322H261.994C262.328 89.0264 263.018 88.0635 263.957 87.3951C264.895 86.7268 266.029 86.3909 267.178 86.4405C267.928 86.4152 268.675 86.5486 269.371 86.8321C270.066 87.1156 270.694 87.5428 271.214 88.0859C271.734 88.629 272.135 89.276 272.39 89.9847C272.645 90.6934 272.748 91.448 272.694 92.1995V103.736H267.178V93.6762C267.178 91.8303 266.351 90.9813 264.807 90.9813C264.462 90.9783 264.121 91.0496 263.807 91.1902C263.492 91.3309 263.211 91.5376 262.983 91.7965C262.755 92.0555 262.585 92.3605 262.484 92.6911C262.383 93.0217 262.354 93.3702 262.398 93.7131V103.736H257.159V93.6023C257.159 91.9042 256.332 90.9813 254.824 90.9813C254.476 90.9814 254.132 91.0556 253.814 91.1991C253.497 91.3426 253.213 91.5521 252.982 91.8137C252.751 92.0754 252.578 92.3832 252.474 92.717C252.37 93.0507 252.338 93.4028 252.379 93.75V103.736H246.864L246.956 86.7543Z" fill="#FEFEFE"/>
<path d="M102.163 82.3607C101.228 80.2128 99.9897 78.2112 98.4867 76.4172C96.2649 73.686 93.4923 71.4581 90.3512 69.8804C87.2101 68.3026 83.7718 67.4106 80.2627 67.2631C76.7535 67.1156 73.253 67.7159 69.9916 69.0246C66.7301 70.3333 63.7817 72.3206 61.3404 74.8558C58.899 77.391 57.0201 80.4166 55.8272 83.7334C54.6344 87.0502 54.1547 90.5831 54.4197 94.0995C54.6846 97.6159 55.6883 101.036 57.3647 104.135C59.041 107.234 61.3519 109.941 64.1454 112.079C65.9379 113.477 67.9185 114.615 70.0283 115.456C72.9863 116.673 76.1522 117.3 79.349 117.302C85.9477 117.288 92.2715 114.647 96.9341 109.958C101.597 105.27 104.218 98.9167 104.222 92.2913C104.227 88.8738 103.526 85.4924 102.163 82.3607ZM79.3306 72.3379C82.2013 72.3376 85.0374 72.9675 87.6402 74.1837C87.0055 74.459 86.3382 74.6513 85.6547 74.7559C83.4056 75.0828 81.3221 76.1312 79.7151 77.7446C78.1082 79.358 77.064 81.45 76.7384 83.7082C76.5955 84.9746 76.0219 86.1528 75.1142 87.0439C74.2066 87.935 73.0206 88.4845 71.7564 88.5996C69.5073 88.9265 67.4238 89.9749 65.8168 91.5883C64.2099 93.2017 63.1657 95.2937 62.8401 97.5519C62.7299 98.7561 62.2182 99.8877 61.3878 100.764C59.9551 97.724 59.3114 94.3699 59.5168 91.0134C59.7222 87.6569 60.7699 84.4072 62.5625 81.5665C64.3551 78.7259 66.8342 76.3867 69.7692 74.7667C72.7042 73.1467 75.9997 72.2984 79.349 72.3009L79.3306 72.3379ZM64.127 105.212C64.3476 105.009 64.5682 104.824 64.7889 104.603C66.4244 103.011 67.4742 100.909 67.7671 98.6409C67.8858 97.3659 68.4528 96.175 69.3665 95.2815C70.2457 94.3626 71.4291 93.798 72.694 93.6941C74.9431 93.3672 77.0266 92.3188 78.6335 90.7054C80.2404 89.092 81.2846 87 81.6102 84.7418C81.6897 83.4082 82.2597 82.1518 83.2096 81.2163C84.1105 80.3153 85.3052 79.7712 86.5739 79.6843C88.6401 79.3988 90.5671 78.4766 92.0891 77.0447C93.822 78.4883 95.2903 80.2249 96.4277 82.1761C96.3578 82.2709 96.2777 82.3576 96.1887 82.4345C95.3112 83.3615 94.1293 83.9385 92.8612 84.0589C90.6098 84.3801 88.5231 85.4266 86.9152 87.0411C85.3072 88.6555 84.2649 90.7506 83.945 93.0111C83.8154 94.2819 83.2523 95.4685 82.351 96.3701C81.4497 97.2716 80.2658 97.8326 78.9997 97.958C76.744 98.2823 74.6527 99.3286 73.0365 100.941C71.4202 102.554 70.3653 104.647 70.0283 106.91C69.9293 107.812 69.6208 108.679 69.1275 109.439C67.2413 108.315 65.5519 106.887 64.127 105.212ZM79.3306 112.337C77.4651 112.339 75.6086 112.078 73.8154 111.562C74.4288 110.414 74.8276 109.162 74.992 107.87C75.1208 106.602 75.6813 105.418 76.5788 104.517C77.4764 103.615 78.6561 103.053 79.9189 102.923C82.1713 102.6 84.259 101.553 85.8695 99.9395C87.4801 98.3258 88.5269 96.2318 88.8535 93.971C88.9823 92.7031 89.5428 91.5186 90.4404 90.6174C91.3379 89.7163 92.5176 89.1535 93.7804 89.0241C95.4754 88.8028 97.091 88.1691 98.4867 87.1783C99.2617 90.1278 99.3535 93.2163 98.7551 96.2069C98.1566 99.1975 96.8839 102.011 95.0344 104.431C93.185 106.851 90.808 108.813 88.0858 110.168C85.3637 111.522 82.3687 112.233 79.3306 112.245V112.337Z" fill="#FEFEFE"/>
</svg>
