<svg width="328" height="185" viewBox="0 0 328 185" fill="none" xmlns="http://www.w3.org/2000/svg">
<path d="M101.964 77.9863H107.493V104.659H101.964V77.9863Z" fill="#FEFEFE"/>
<path d="M110.59 95.5215C110.59 93.6025 111.159 91.7268 112.225 90.132C113.29 88.5372 114.805 87.2952 116.576 86.5634C118.348 85.8316 120.296 85.6429 122.175 86.0214C124.053 86.3998 125.777 87.3282 127.128 88.689C128.479 90.0498 129.397 91.7817 129.764 93.6651C130.131 95.5486 129.931 97.4987 129.19 99.2685C128.449 101.038 127.201 102.548 125.602 103.606C124.004 104.664 122.127 105.223 120.211 105.212C118.94 105.222 117.68 104.978 116.505 104.494C115.329 104.009 114.262 103.295 113.366 102.393C112.47 101.49 111.763 100.417 111.286 99.2374C110.809 98.0575 110.573 96.7942 110.59 95.5215ZM124.45 95.5215C124.429 94.6942 124.164 93.8917 123.689 93.2143C123.214 92.537 122.551 92.0148 121.781 91.7132C121.011 91.4116 120.17 91.3439 119.362 91.5186C118.555 91.6933 117.816 92.1026 117.24 92.6953C116.663 93.288 116.273 94.0379 116.12 94.8511C115.967 95.6643 116.056 96.5048 116.377 97.2673C116.698 98.0299 117.237 98.6807 117.925 99.1385C118.614 99.5962 119.422 99.8405 120.248 99.8408C120.811 99.8517 121.369 99.7464 121.89 99.5313C122.41 99.3161 122.88 98.9959 123.271 98.5905C123.662 98.1851 123.965 97.7034 124.162 97.1753C124.358 96.6473 124.444 96.0843 124.413 95.5215H124.45Z" fill="#FEFEFE"/>
<path d="M151.711 86.385V103.754C151.711 109.882 146.918 112.485 142.071 112.485C140.361 112.626 138.646 112.285 137.119 111.503C135.592 110.72 134.313 109.526 133.426 108.055L138.09 105.36C138.468 106.123 139.069 106.753 139.813 107.165C140.557 107.577 141.409 107.752 142.255 107.668C142.794 107.734 143.341 107.68 143.857 107.511C144.373 107.341 144.845 107.059 145.24 106.685C145.634 106.311 145.941 105.854 146.139 105.348C146.337 104.841 146.421 104.297 146.384 103.754V102.075C145.74 102.856 144.924 103.476 143.999 103.886C143.075 104.297 142.067 104.485 141.057 104.437C138.613 104.437 136.269 103.465 134.541 101.734C132.812 100.003 131.841 97.6559 131.841 95.2081C131.841 92.7604 132.812 90.4129 134.541 88.6821C136.269 86.9513 138.613 85.979 141.057 85.979C142.067 85.9311 143.075 86.1197 143.999 86.5299C144.924 86.94 145.74 87.5603 146.384 88.3416V86.4958L151.711 86.385ZM146.384 95.1527C146.421 94.2696 146.193 93.3957 145.73 92.6433C145.266 91.891 144.589 91.2945 143.785 90.9308C142.98 90.567 142.086 90.4525 141.216 90.602C140.346 90.7515 139.541 91.1582 138.903 91.7698C138.266 92.3813 137.826 93.1698 137.64 94.0338C137.454 94.8977 137.53 95.7978 137.859 96.618C138.187 97.4383 138.754 98.1414 139.485 98.6368C140.215 99.1323 141.078 99.3974 141.96 99.3982C142.536 99.4397 143.114 99.3598 143.658 99.1637C144.201 98.9675 144.697 98.6594 145.114 98.2594C145.53 97.8593 145.859 97.3761 146.078 96.841C146.297 96.3059 146.401 95.7307 146.384 95.1527Z" fill="#FEFEFE"/>
<path d="M154.826 95.5217C154.826 93.6042 155.394 91.7299 156.458 90.1359C157.522 88.5419 159.034 87.2999 160.803 86.5669C162.573 85.834 164.519 85.6432 166.397 86.0186C168.274 86.394 169.999 87.3188 171.351 88.6759C172.704 90.033 173.624 91.7614 173.995 93.6424C174.366 95.5235 174.172 97.4725 173.437 99.2429C172.702 101.013 171.459 102.525 169.865 103.588C168.271 104.651 166.398 105.216 164.484 105.212C163.21 105.225 161.947 104.982 160.769 104.499C159.59 104.017 158.52 103.303 157.62 102.4C156.721 101.498 156.01 100.424 155.53 99.2432C155.05 98.0621 154.811 96.7968 154.826 95.5217ZM168.686 95.5217C168.664 94.6936 168.399 93.8903 167.923 93.2126C167.448 92.5349 166.783 92.0128 166.012 91.7117C165.242 91.4107 164.4 91.344 163.591 91.5202C162.783 91.6964 162.045 92.1075 161.469 92.7021C160.893 93.2967 160.505 94.0482 160.354 94.8626C160.202 95.677 160.294 96.518 160.618 97.2803C160.942 98.0425 161.483 98.692 162.174 99.1475C162.865 99.6031 163.675 99.8442 164.502 99.8409C165.065 99.8519 165.624 99.7465 166.144 99.5314C166.664 99.3163 167.134 98.996 167.525 98.5907C167.916 98.1853 168.219 97.7035 168.416 97.1754C168.613 96.6474 168.698 96.0844 168.668 95.5217H168.686Z" fill="#FEFEFE"/>
<path d="M176.704 81.4936C176.704 80.8438 176.896 80.2085 177.257 79.6682C177.617 79.1279 178.13 78.7068 178.729 78.4581C179.329 78.2094 179.988 78.1444 180.625 78.2711C181.261 78.3979 181.846 78.7108 182.305 79.1703C182.764 79.6298 183.076 80.2153 183.203 80.8526C183.329 81.4899 183.264 82.1506 183.016 82.7509C182.768 83.3513 182.347 83.8644 181.808 84.2254C181.268 84.5865 180.634 84.7792 179.985 84.7792C179.118 84.7696 178.289 84.4203 177.676 83.8062C177.062 83.1921 176.714 82.362 176.704 81.4936ZM177.239 86.385H182.768V104.659H177.239V86.385Z" fill="#FEFEFE"/>
<path d="M206.434 95.5217C206.496 96.737 206.317 97.9525 205.908 99.0984C205.499 100.244 204.868 101.298 204.051 102.199C203.234 103.099 202.247 103.829 201.147 104.346C200.047 104.864 198.856 105.158 197.642 105.212C196.612 105.281 195.58 105.116 194.622 104.729C193.665 104.342 192.807 103.744 192.113 102.979V112.005H186.583V86.3848H192.113V88.1014C192.808 87.3385 193.666 86.743 194.624 86.3594C195.582 85.9758 196.613 85.8141 197.642 85.8864C198.851 85.9409 200.038 86.2334 201.134 86.7471C202.23 87.2609 203.214 87.9858 204.031 88.8805C204.847 89.7752 205.48 90.8222 205.892 91.9617C206.304 93.1012 206.488 94.3109 206.434 95.5217ZM200.905 95.5217C200.883 94.6644 200.609 93.8326 200.117 93.1305C199.625 92.4285 198.937 91.8875 198.14 91.5753C197.342 91.263 196.47 91.1935 195.634 91.3754C194.797 91.5573 194.032 91.9825 193.436 92.5977C192.839 93.2129 192.437 93.9908 192.28 94.8339C192.123 95.6769 192.218 96.5476 192.553 97.3368C192.888 98.126 193.448 98.7986 194.163 99.2704C194.879 99.7421 195.717 99.9919 196.573 99.9886C197.16 100.013 197.745 99.914 198.29 99.6965C198.836 99.4791 199.329 99.1487 199.738 98.7269C200.147 98.3051 200.462 97.8015 200.663 97.2491C200.864 96.6968 200.947 96.1081 200.905 95.5217Z" fill="#FEFEFE"/>
<path d="M223.262 99.1764C223.262 103.385 219.576 105.175 215.668 105.175C214.075 105.319 212.475 104.981 211.075 104.204C209.675 103.428 208.54 102.248 207.817 100.819L212.572 98.1243C212.76 98.7829 213.169 99.3568 213.729 99.7499C214.289 100.143 214.968 100.332 215.65 100.284C216.959 100.284 217.622 99.8778 217.622 99.1395C217.622 97.1275 208.646 98.1981 208.646 91.8669C208.646 87.8799 212.001 85.8864 215.798 85.8864C217.241 85.8217 218.675 86.1496 219.947 86.8354C221.219 87.5211 222.282 88.5391 223.023 89.7811L218.267 92.2915C218.057 91.8153 217.714 91.4102 217.279 91.1252C216.844 90.8402 216.336 90.6876 215.816 90.6856C214.857 90.6856 214.286 91.0548 214.286 91.7008C214.286 93.805 223.262 92.4207 223.262 99.1764Z" fill="#FEFEFE"/>
<path d="M243.297 86.3848V104.658H237.768V102.942C237.14 103.702 236.342 104.303 235.439 104.697C234.536 105.092 233.554 105.268 232.57 105.212C228.884 105.212 225.732 102.573 225.732 97.6443V86.3848H231.262V96.8137C231.218 97.2497 231.27 97.6899 231.413 98.104C231.556 98.5181 231.787 98.8962 232.09 99.2121C232.393 99.528 232.761 99.7743 233.169 99.9338C233.576 100.093 234.013 100.162 234.45 100.136C236.441 100.136 237.842 98.9548 237.842 96.4445V86.3848H243.297Z" fill="#FEFEFE"/>
<path d="M274.631 93.4359V104.659H269.101V93.9158C269.101 92.07 268.235 90.9256 266.484 90.9256C264.733 90.9256 263.627 92.1992 263.627 94.3588V104.659H258.098V93.9158C258.098 92.07 257.231 90.9256 255.48 90.9256C253.729 90.9256 252.624 92.1992 252.624 94.3588V104.659H247.094V86.3848H252.624V88.0645C253.196 87.3224 253.944 86.7348 254.8 86.3545C255.656 85.9743 256.593 85.8134 257.526 85.8865C258.462 85.8376 259.393 86.0331 260.23 86.4538C261.067 86.8745 261.78 87.5059 262.3 88.286C262.908 87.471 263.711 86.8234 264.636 86.4038C265.561 85.9841 266.578 85.8062 267.59 85.8865C271.903 85.8865 274.631 88.8767 274.631 93.4359Z" fill="#FEFEFE"/>
<path d="M69.0263 73.1871V65.3423H44.3279V119.241H69.0263V111.396C63.9669 111.396 59.1146 109.383 55.537 105.8C51.9595 102.217 49.9496 97.3582 49.9496 92.2914C49.9496 87.2246 51.9595 82.3654 55.537 78.7826C59.1146 75.1998 63.9669 73.1871 69.0263 73.1871Z" fill="#FEFEFE"/>
<path d="M69.0264 73.187V111.396C74.0859 111.396 78.9381 109.383 82.5157 105.8C86.0933 102.217 88.1031 97.3581 88.1031 92.2914C88.1031 87.2246 86.0933 82.3653 82.5157 78.7825C78.9381 75.1998 74.0859 73.187 69.0264 73.187Z" fill="#FEFEFE"/>
<path d="M279.276 86.274C281.515 86.274 283.331 84.4559 283.331 82.2132C283.331 79.9704 281.515 78.1523 279.276 78.1523C277.037 78.1523 275.221 79.9704 275.221 82.2132C275.221 84.4559 277.037 86.274 279.276 86.274Z" fill="#FEFEFE"/>
</svg>
