<svg width="328" height="185" viewBox="0 0 328 185" fill="none" xmlns="http://www.w3.org/2000/svg">
<path fill-rule="evenodd" clip-rule="evenodd" d="M19.5078 55.4619V120.902H311.041V55.4619H19.5078ZM307.364 117.21H158.452V59.1536H307.364V117.21ZM35.0041 99.1454V77.3886H42.4828V93.3513H55.6753V99.1454H35.0041ZM70.6121 99.4776C80.854 99.4776 85.1596 95.0421 85.1596 88.1147C85.1596 81.0747 80.3098 76.8902 70.6121 76.8902C61.0634 76.8902 56.0371 81.4346 56.0371 88.1147C56.0371 95.6531 61.3097 99.4776 70.6121 99.4776ZM70.5846 82.544C76.3535 82.544 77.6514 85.0599 77.6514 88.1978C77.6514 91.524 76.0814 93.9069 70.6085 93.9069C65.1704 93.9069 63.5986 91.6624 63.5986 88.1978C63.5986 84.7885 65.312 82.544 70.5846 82.544ZM108.294 99.1454L108.101 97.0374C105.599 98.8302 102.554 99.6929 99.4882 99.4776C94.8793 99.4776 91.0406 98.0914 88.8878 95.2931C87.468 93.2502 86.7509 90.7979 86.8454 88.3085C86.7647 85.8714 87.5065 83.4784 88.9503 81.5177C91.1289 78.8025 95.0778 77.0009 100.957 77.0009C107.721 77.0009 111.695 79.0794 113.405 82.5717C113.772 83.3941 113.988 84.2765 114.041 85.1761H106.886C106.706 84.6295 106.37 84.1476 105.921 83.7899C104.496 82.8412 102.794 82.4023 101.089 82.544C100.09 82.4223 99.076 82.5151 98.1148 82.8161C97.1536 83.1171 96.2669 83.6195 95.5135 84.2901C94.658 85.4659 94.2563 86.9133 94.3829 88.3639C94.2837 89.7478 94.653 91.1247 95.4308 92.2715C96.1911 92.9826 97.0948 93.5214 98.0806 93.8513C99.0664 94.1812 100.111 94.2946 101.145 94.1838C103.197 94.3514 105.234 93.7158 106.831 92.4099C107.174 91.9795 107.41 91.4734 107.52 90.9333H99.8209V86.2578H114.229V99.1454H108.294ZM130.901 99.4776C141.141 99.4776 145.449 95.0421 145.449 88.1147C145.449 81.0747 140.592 76.8902 130.901 76.8902C121.353 76.8902 116.326 81.4346 116.326 88.1147C116.326 95.6531 121.599 99.4776 130.901 99.4776ZM130.874 82.544C136.643 82.544 137.941 85.0599 137.941 88.1978C137.941 91.524 136.369 93.9069 130.898 93.9069C125.462 93.9069 123.888 91.6624 123.888 88.1978C123.888 84.7885 125.601 82.544 130.874 82.544Z" fill="#FEFEFE"/>
<path d="M171.049 99.062V77.3052H176.38V99.062H171.049Z" fill="#FEFEFE"/>
<path d="M203.758 89.9716C202.407 91.7454 200.081 92.5558 196.803 92.5761C196.112 92.5761 186.947 92.5484 186.947 92.5484V99.0623H181.73V77.3055H196.805C198.013 77.1772 199.235 77.3058 200.39 77.683C201.546 78.0602 202.609 78.6775 203.511 79.4947C204.702 81.0529 205.282 82.9958 205.14 84.9546C205.262 86.7362 204.774 88.5061 203.758 89.9716ZM199.48 82.8781C198.928 82.0474 197.739 81.586 195.726 81.586H186.92V88.2088H195.669C197.822 88.2088 198.956 87.7658 199.48 86.9057C199.791 86.2997 199.925 85.6174 199.866 84.938C199.912 84.2297 199.78 83.521 199.48 82.8781Z" fill="#FEFEFE"/>
<path d="M220.515 99.3944C210.687 99.3944 207.679 95.7028 207.679 92.0499H213.255C213.255 93.8514 215.711 95.21 220.763 95.21C225.786 95.21 227.111 94.3221 227.111 92.8805C227.111 91.2728 226.119 90.7744 221.453 90.2484C220.534 90.1653 218.031 89.8607 217.092 89.7223C210.474 88.9729 207.926 87.0052 207.926 83.4852C207.926 79.7714 211.654 76.9731 219.741 76.9731C228.52 76.9731 231.888 80.4378 231.888 84.0408H226.372C226.372 82.2116 224.302 81.1576 219.416 81.1576C214.391 81.1576 213.316 81.8498 213.316 83.2084C213.316 84.6223 214.419 85.0653 219.75 85.7021C220.966 85.87 223.67 86.1746 224.414 86.2558C230.047 86.8373 232.586 88.888 232.586 92.5187C232.577 96.8435 228.713 99.3944 220.515 99.3944Z" fill="#FEFEFE"/>
<path d="M248.287 99.3665C241.084 99.3665 236.39 96.511 236.39 90.5066V77.3052H241.661V90.5804C241.661 93.3251 243.898 95.1525 248.507 95.1525C252.675 95.1525 255.161 93.4359 255.161 90.5804V77.3052H260.378V90.9994C260.378 96.4575 256.015 99.3665 248.287 99.3665Z" fill="#FEFEFE"/>
<path d="M288.947 99.062V84.539L282.183 99.062H277.05L270.48 84.539V99.062H265.516V77.3052H272.241L279.694 93.8789L287.312 77.3052H293.931V99.062H288.947Z" fill="#FEFEFE"/>
</svg>
