<svg width="328" height="185" viewBox="0 0 328 185" fill="none" xmlns="http://www.w3.org/2000/svg">
<path d="M85.4971 76.3991H89.1739V102.093H100.204V105.785H85.4971V76.3991ZM111.658 76.3991C113.839 76.3991 115.972 77.0487 117.786 78.2656C119.6 79.4826 121.013 81.2122 121.848 83.2359C122.683 85.2596 122.902 87.4864 122.476 89.6347C122.05 91.7831 121 93.7565 119.457 95.3053C117.915 96.8542 115.949 97.909 113.809 98.3363C111.67 98.7636 109.452 98.5443 107.436 97.7061C105.421 96.8678 103.698 95.4483 102.486 93.6271C101.274 91.8058 100.627 89.6645 100.627 87.4741C100.627 86.0197 100.912 84.5796 101.467 83.2359C102.021 81.8922 102.834 80.6713 103.858 79.6429C104.882 78.6145 106.098 77.7987 107.436 77.2422C108.775 76.6856 110.209 76.3991 111.658 76.3991ZM111.658 94.8574C113.112 94.8574 114.534 94.4244 115.743 93.6131C116.952 92.8018 117.895 91.6487 118.451 90.2996C119.008 88.9505 119.154 87.4659 118.87 86.0337C118.586 84.6015 117.886 83.2859 116.857 82.2533C115.829 81.2208 114.519 80.5176 113.092 80.2327C111.666 79.9478 110.187 80.094 108.843 80.6528C107.5 81.2116 106.351 82.158 105.543 83.3722C104.735 84.5864 104.304 86.0138 104.304 87.4741C104.314 89.4259 105.093 91.2944 106.471 92.6711C107.849 94.0477 109.714 94.8206 111.658 94.8205V94.8574ZM104.304 102.13H119.011V105.822H104.304V102.13ZM151.367 105.822H147.69V103.182C145.319 104.849 142.496 105.744 139.601 105.748C137.133 105.764 134.701 105.157 132.528 103.982C130.355 102.807 128.511 101.101 127.167 99.0228C125.823 96.9443 125.022 94.5597 124.837 92.0886C124.652 89.6175 125.089 87.1394 126.109 84.8825C127.128 82.6257 128.697 80.6627 130.67 79.1745C132.644 77.6862 134.958 76.7206 137.401 76.3664C139.844 76.0123 142.336 76.2811 144.648 77.1481C146.96 78.0151 149.018 79.4524 150.632 81.3275L147.929 83.7455C146.702 82.3679 145.151 81.3205 143.417 80.699C141.683 80.0774 139.822 79.9013 138.004 80.1869C136.185 80.4724 134.466 81.2104 133.004 82.3337C131.542 83.457 130.384 84.9297 129.634 86.6178C128.884 88.3058 128.567 90.1554 128.711 91.9981C128.856 93.8407 129.457 95.6177 130.461 97.1672C131.465 98.7166 132.838 99.9892 134.457 100.869C136.076 101.749 137.889 102.208 139.73 102.204C141.258 102.207 142.768 101.879 144.158 101.242C145.548 100.604 146.784 99.6734 147.782 98.5122H137.855V94.8205H151.404L151.367 105.822ZM164.898 76.473C167.079 76.473 169.212 77.1225 171.026 78.3394C172.84 79.5564 174.253 81.2861 175.088 83.3097C175.923 85.3334 176.142 87.5602 175.716 89.7086C175.29 91.8569 174.24 93.8303 172.697 95.3792C171.155 96.928 169.189 97.9828 167.05 98.4101C164.91 98.8375 162.692 98.6182 160.676 97.7799C158.661 96.9417 156.938 95.5222 155.726 93.7009C154.514 91.8796 153.867 89.7384 153.867 87.548C153.857 86.0843 154.137 84.6331 154.689 83.2785C155.241 81.9239 156.056 80.6926 157.085 79.6559C158.114 78.6191 159.337 77.7975 160.685 77.2385C162.032 76.6795 163.477 76.3942 164.934 76.3991L164.898 76.473ZM164.898 94.9313C166.352 94.9313 167.774 94.4983 168.983 93.687C170.192 92.8757 171.135 91.7226 171.691 90.3734C172.248 89.0243 172.394 87.5398 172.11 86.1075C171.826 84.6753 171.126 83.3597 170.097 82.3272C169.069 81.2946 167.759 80.5914 166.332 80.3065C164.906 80.0216 163.427 80.1678 162.083 80.7267C160.74 81.2855 159.591 82.2318 158.783 83.446C157.975 84.6602 157.544 86.0877 157.544 87.548C157.573 89.4933 158.366 91.3485 159.749 92.7103C161.133 94.0721 162.997 94.8305 164.934 94.8205L164.898 94.9313ZM157.544 102.204H172.251V105.896H157.544V102.204ZM179.844 76.3991H183.521V105.748H179.844V76.3991ZM188.613 76.3991H192.29C192.479 76.379 192.67 76.379 192.86 76.3991C194.399 76.2314 195.957 76.3912 197.432 76.868C198.906 77.3449 200.264 78.1282 201.416 79.1668C202.569 80.2055 203.491 81.4763 204.122 82.8965C204.754 84.3166 205.08 85.8544 205.08 87.4095C205.08 88.9647 204.754 90.5024 204.122 91.9226C203.491 93.3428 202.569 94.6136 201.416 95.6522C200.264 96.6909 198.906 97.4741 197.432 97.951C195.957 98.4279 194.399 98.5876 192.86 98.4199H192.29V105.803H188.613V76.3991ZM192.29 80.0908V94.6913H192.86C193.898 94.8302 194.954 94.7446 195.957 94.4404C196.96 94.1362 197.887 93.6203 198.675 92.9273C199.463 92.2343 200.095 91.3802 200.527 90.4222C200.96 89.4643 201.184 88.4245 201.184 87.3726C201.184 86.3207 200.96 85.2809 200.527 84.323C200.095 83.365 199.463 82.5109 198.675 81.8179C197.887 81.1249 196.96 80.6091 195.957 80.3048C194.954 80.0006 193.898 79.915 192.86 80.0539C192.659 80.0748 192.462 80.1182 192.271 80.1831L192.29 80.0908ZM218.781 78.5218L216.06 80.6815C215.591 80.189 214.991 79.8413 214.332 79.6792C213.672 79.5171 212.98 79.5474 212.338 79.7664C211.695 79.9855 211.127 80.3842 210.702 80.9158C210.277 81.4473 210.012 82.0897 209.938 82.7673V83.0626C209.938 84.6869 211.06 85.776 213.247 85.9236C221.667 86.4405 225.528 90.409 225.528 95.6512V95.9834C225.311 98.0582 224.504 100.027 223.205 101.655C221.905 103.282 220.168 104.501 218.198 105.166C216.229 105.831 214.111 105.914 212.095 105.406C210.08 104.897 208.253 103.817 206.831 102.296L209.644 100.118C210.299 100.823 211.098 101.376 211.987 101.739C212.876 102.102 213.833 102.267 214.792 102.222C216.562 102.316 218.301 101.719 219.644 100.557C220.986 99.3942 221.83 97.7557 221.998 95.9834V95.725C221.998 90.7966 217.182 89.8922 213.009 89.4861C209.148 89.1169 206.372 86.6989 206.372 83.2103V83.0626C206.508 81.2463 207.334 79.5519 208.678 78.3291C210.022 77.1063 211.783 76.4484 213.597 76.4914C214.558 76.4629 215.514 76.6371 216.404 77.0028C217.294 77.3684 218.097 77.9173 218.763 78.6141L218.781 78.5218ZM239.923 102.001C244.5 102.001 248.122 97.0355 248.122 90.9258V76.1592H251.799V90.9258C251.799 99.0475 246.504 105.6 239.996 105.6C233.488 105.6 228.194 99.0475 228.194 90.9258V76.1592H231.87V90.9258C231.723 97.1278 235.345 102.093 239.904 102.093L239.923 102.001ZM280.018 105.692H276.341V87.4188L267.866 98.4937L259.391 87.4188V105.748H255.715V76.3991L267.848 92.4394L279.981 76.3991L280.018 105.692Z" fill="#FEFEFE"/>
<path d="M67.8486 71.9871C67.8486 69.324 66.7949 66.77 64.9194 64.8868C63.0439 63.0037 60.5001 61.9458 57.8477 61.9458C55.1953 61.9458 52.6515 63.0037 50.776 64.8868C48.9005 66.77 47.8468 69.324 47.8468 71.9871V102.351L56.0828 108.276V122.711H59.6126V108.276L67.8486 102.351V71.9871ZM64.3189 88.9688L59.6126 93.6941V89.2641L64.3189 84.5388V88.9688ZM51.4501 84.5388L56.1564 89.2641V93.6941L51.4501 88.9688V84.5388ZM64.3189 79.5181L57.8477 86.0155L51.3765 79.3705V74.9405L57.8477 81.4378L64.3189 74.9405V79.5181ZM57.8477 65.4898C59.2709 65.4961 60.6528 65.9707 61.7817 66.8408C62.9107 67.7109 63.7244 68.9287 64.0983 70.3074L57.8477 76.5648L51.5971 70.3074C51.9574 68.9149 52.7652 67.6807 53.8954 66.7963C55.0255 65.9119 56.4148 65.4267 57.8477 65.416V65.4898ZM51.3765 100.561V93.9156L56.0828 98.641V103.92L51.3765 100.561ZM59.6126 103.939V98.641L64.3189 93.9156V100.542L59.6126 103.939Z" fill="#FEFEFE"/>
</svg>
