<svg width="328" height="185" viewBox="0 0 328 185" fill="none" xmlns="http://www.w3.org/2000/svg">
<path d="M113.757 81.6965H119.659V105.692H113.757V81.6965ZM122.012 96.6662C122.012 90.7226 125.689 87.1602 131.204 87.1602C136.719 87.1602 140.396 90.7226 140.396 96.6662C140.396 102.61 136.848 106.209 131.204 106.209C125.56 106.209 122.012 102.739 122.012 96.6662ZM134.55 96.6662C134.55 93.3991 133.281 91.4794 131.259 91.4794C129.237 91.4794 127.987 93.3252 127.987 96.6662C127.987 100.007 129.237 101.835 131.259 101.835C133.281 101.835 134.587 100.007 134.587 96.6846L134.55 96.6662ZM142.749 106.929H148.448C148.707 107.545 149.161 108.059 149.738 108.392C150.316 108.726 150.986 108.86 151.647 108.775C153.908 108.775 155.085 107.557 155.085 105.748V102.425H155.103C154.616 103.46 153.829 104.322 152.844 104.899C151.86 105.475 150.724 105.739 149.588 105.655C145.268 105.655 142.4 102.351 142.4 96.6662C142.4 90.981 145.139 87.437 149.753 87.437C150.919 87.3744 152.075 87.6763 153.063 88.3011C154.051 88.9259 154.821 89.8428 155.268 90.9256H155.103V87.5847H160.949V105.563C160.949 109.901 157.125 112.614 151.5 112.614C146.389 112.596 143.117 110.251 142.786 106.947L142.749 106.929ZM155.103 96.6662C155.103 93.7682 153.779 91.9409 151.684 91.9409C149.588 91.9409 148.301 93.7867 148.301 96.6662C148.301 99.5457 149.569 101.244 151.684 101.244C153.798 101.244 155.103 99.6749 155.103 96.6662ZM163.284 96.6662C163.284 90.7226 166.961 87.1602 172.476 87.1602C177.991 87.1602 181.668 90.7226 181.668 96.6662C181.668 102.61 178.101 106.209 172.476 106.209C166.85 106.209 163.321 102.739 163.321 96.6662H163.284ZM175.822 96.6662C175.822 93.3991 174.535 91.4794 172.531 91.4794C170.527 91.4794 169.259 93.3252 169.259 96.6662C169.259 100.007 170.509 101.835 172.531 101.835C174.553 101.835 175.859 100.007 175.859 96.6846L175.822 96.6662ZM184.058 83.2101C184.032 82.6065 184.187 82.0091 184.502 81.4946C184.817 80.98 185.279 80.572 185.827 80.3229C186.375 80.0739 186.985 79.9952 187.578 80.097C188.171 80.1988 188.72 80.4764 189.155 80.8942C189.59 81.3119 189.89 81.8507 190.017 82.4412C190.144 83.0316 190.092 83.6468 189.868 84.2075C189.645 84.7682 189.259 85.2488 188.76 85.5875C188.262 85.9262 187.674 86.1075 187.073 86.108C186.688 86.1178 186.306 86.0509 185.947 85.911C185.589 85.7712 185.261 85.5612 184.984 85.2933C184.707 85.0254 184.486 84.705 184.333 84.3505C184.18 83.9961 184.099 83.6147 184.095 83.2285L184.058 83.2101ZM184.058 87.5662H190.033V105.766H184.15L184.058 87.5662ZM211.523 96.6662C211.523 102.591 208.876 106.025 204.372 106.025C203.219 106.096 202.072 105.81 201.086 105.206C200.099 104.602 199.321 103.709 198.857 102.647H198.747V111.617H192.845V87.6216H198.71V90.8703H198.82C199.269 89.7873 200.039 88.8694 201.026 88.2418C202.013 87.6143 203.168 87.3074 204.335 87.3632C208.968 87.3263 211.634 90.7411 211.634 96.6846L211.523 96.6662ZM205.512 96.6662C205.512 93.7867 204.17 91.9224 202.092 91.9224C200.015 91.9224 198.71 93.7682 198.691 96.6662C198.673 99.5641 200.015 101.392 202.092 101.392C204.17 101.392 205.622 99.6749 205.622 96.6846L205.512 96.6662ZM221.598 87.1417C226.543 87.1417 229.613 89.4859 229.65 93.2514H224.264C224.264 91.9409 223.179 91.1287 221.561 91.1287C219.943 91.1287 219.171 91.7563 219.171 92.6976C219.171 93.639 219.851 93.9344 221.212 94.2112L224.999 94.9865C228.676 95.7617 230.146 97.2384 230.146 99.9887C230.146 103.68 226.745 106.191 221.69 106.191C216.634 106.191 213.344 103.754 213.105 100.044H218.822C218.987 101.392 220.054 102.185 221.782 102.185C223.51 102.185 224.319 101.631 224.319 100.653C224.319 99.6749 223.767 99.5088 222.352 99.2134L218.932 98.4936C215.384 97.7368 213.527 95.8725 213.527 93.0853C213.638 89.4674 216.726 87.1602 221.708 87.1602L221.598 87.1417ZM249.909 105.748H244.192V102.333H244.082C243.761 103.472 243.064 104.467 242.105 105.155C241.146 105.843 239.982 106.182 238.805 106.117C237.917 106.146 237.032 105.986 236.209 105.648C235.387 105.309 234.645 104.8 234.032 104.153C233.419 103.506 232.949 102.737 232.654 101.895C232.358 101.053 232.243 100.158 232.316 99.2688V87.5847H238.217V97.9952C238.217 100.136 239.338 101.299 241.177 101.299C241.608 101.296 242.034 101.2 242.425 101.017C242.816 100.835 243.164 100.57 243.444 100.241C243.725 99.9122 243.932 99.5267 244.051 99.1106C244.171 98.6945 244.2 98.2575 244.137 97.8291V87.5847H250.02L249.909 105.748ZM252.759 87.5662H258.495V91.0733H258.623C258.94 89.9498 259.619 88.9636 260.554 88.2689C261.489 87.5741 262.626 87.2102 263.789 87.234C264.956 87.1321 266.12 87.471 267.051 88.1845C267.983 88.8979 268.616 89.9346 268.826 91.0918H269.084C269.451 89.9284 270.191 88.9195 271.188 88.2218C272.186 87.5242 273.385 87.1769 274.599 87.234C275.406 87.2031 276.21 87.3438 276.96 87.6466C277.709 87.9495 278.386 88.4078 278.946 88.9915C279.507 89.5752 279.938 90.2712 280.212 91.034C280.486 91.7967 280.597 92.6089 280.537 93.4175V105.766H274.599V94.9311C274.599 93.0853 273.735 92.0516 272.062 92.0516C271.691 92.0455 271.323 92.12 270.983 92.27C270.644 92.4201 270.34 92.6421 270.094 92.9209C269.848 93.1996 269.665 93.5286 269.557 93.8851C269.449 94.2416 269.419 94.6173 269.47 94.9865V105.766H263.844V94.8757C263.844 93.0299 262.944 92.0516 261.326 92.0516C260.951 92.0486 260.58 92.1262 260.237 92.2791C259.894 92.432 259.588 92.6567 259.339 92.9382C259.09 93.2197 258.904 93.5514 258.793 93.911C258.683 94.2706 258.65 94.6499 258.697 95.0234V105.766H252.796L252.759 87.5662Z" fill="#FEFEFE"/>
<path d="M102.084 83.2655C102.084 79.5918 100.979 76.0036 98.9135 72.971C96.8482 69.9384 93.9188 67.6028 90.5091 66.2701C87.0994 64.9374 83.3682 64.6697 79.8044 65.5022C76.2406 66.3346 73.0103 68.2284 70.5366 70.9354H47.5934V119.555H96.0352V96.8324C97.9365 95.1249 99.4579 93.0341 100.5 90.6964C101.542 88.3588 102.082 85.8267 102.084 83.2655ZM92.7628 83.2655C92.7665 85.0259 92.2499 86.7479 91.2784 88.2134C90.307 89.6789 88.9243 90.8221 87.3055 91.4983C85.6867 92.1746 83.9044 92.3534 82.1843 92.0122C80.4643 91.671 78.8836 90.8251 77.6426 89.5816C76.4015 88.3381 75.5557 86.7528 75.2123 85.0265C74.8689 83.3001 75.0433 81.5103 75.7134 79.8836C76.3836 78.2568 77.5193 76.8662 78.9769 75.8878C80.4345 74.9093 82.1484 74.3871 83.9018 74.3871C86.2487 74.3871 88.4998 75.3219 90.161 76.9864C91.8223 78.6509 92.758 80.9091 92.7628 83.2655ZM86.7145 110.196H56.9141V80.2937H65.9958C65.8203 81.2747 65.7281 82.2689 65.72 83.2655C65.7249 88.1056 67.642 92.7461 71.0507 96.1685C74.4594 99.591 79.0812 101.516 83.9018 101.521C84.8442 101.516 85.7847 101.436 86.7145 101.281V110.196Z" fill="#FEFEFE"/>
</svg>
