<svg width="60" height="60" viewBox="0 0 60 60" fill="none" xmlns="http://www.w3.org/2000/svg">
<g clip-path="url(#clip0_2_181)">
<path d="M30 60C29.83 60 29.66 59.965 29.5025 59.895L0.7525 47.395C0.295 47.1975 0 46.7475 0 46.25V13.75C0 13.06 0.56 12.5 1.25 12.5C1.94 12.5 2.5 13.06 2.5 13.75V45.43L30 57.385L57.5 45.43V13.75C57.5 13.06 58.06 12.5 58.75 12.5C59.44 12.5 60 13.06 60 13.75V46.25C60 46.7475 59.705 47.1975 59.2475 47.395L30.4975 59.895C30.34 59.965 30.17 60 30 60Z" fill="#FEFEFE"/>
<path d="M30 27.5C29.83 27.5 29.66 27.465 29.5025 27.395L0.7525 14.895C0.295 14.6975 0 14.2475 0 13.75C0 13.2525 0.295 12.8025 0.7525 12.605L29.5025 0.105C29.82 -0.035 30.18 -0.035 30.4975 0.105L59.2475 12.605C59.705 12.8025 60 13.2525 60 13.75C60 14.2475 59.705 14.6975 59.2475 14.895L30.4975 27.395C30.34 27.465 30.17 27.5 30 27.5ZM4.385 13.75L30 24.8875L55.615 13.75L30 2.6125L4.385 13.75Z" fill="#FEFEFE"/>
<path d="M58.7498 47.5C58.5848 47.5 58.4123 47.4675 58.2523 47.395L55.9598 46.3975C55.3248 46.1225 55.0373 45.385 55.3123 44.7525C55.5823 44.12 56.3273 43.8325 56.9548 44.105L59.2473 45.1025C59.8823 45.3775 60.1698 46.115 59.8948 46.7475C59.6923 47.22 59.2298 47.5 58.7498 47.5Z" fill="#FEFEFE"/>
<path d="M50.8825 44.0776C50.7175 44.0776 50.545 44.0451 50.385 43.9726L46.6675 42.3576C46.035 42.0826 45.745 41.3451 46.0175 40.7126C46.2925 40.0801 47.035 39.7876 47.6625 40.0651L51.38 41.6801C52.0125 41.9551 52.3025 42.6926 52.03 43.3251C51.8225 43.7976 51.3625 44.0776 50.8825 44.0776ZM41.5875 40.0376C41.4225 40.0376 41.25 40.0051 41.09 39.9326L37.3725 38.3176C36.74 38.0426 36.45 37.3051 36.7225 36.6726C36.9975 36.0401 37.74 35.7476 38.3675 36.0251L42.085 37.6401C42.7175 37.9151 43.0075 38.6526 42.735 39.2851C42.53 39.7576 42.0675 40.0376 41.5875 40.0376Z" fill="#FEFEFE"/>
<path d="M32.2925 35.9976C32.1275 35.9976 31.955 35.9651 31.795 35.8926L30 35.1126L28.205 35.8926C27.5775 36.1676 26.8325 35.8776 26.5625 35.2451C26.2875 34.6126 26.575 33.8751 27.21 33.6001L29.5025 32.6026C29.82 32.4626 30.18 32.4626 30.4975 32.6026L32.79 33.6001C33.425 33.8751 33.7125 34.6126 33.4375 35.2451C33.235 35.7176 32.7725 35.9976 32.2925 35.9976Z" fill="#FEFEFE"/>
<path d="M9.11731 44.0775C8.63731 44.0775 8.17481 43.7975 7.96981 43.325C7.69731 42.6925 7.98731 41.955 8.61981 41.68L12.3373 40.065C12.9673 39.7875 13.7073 40.08 13.9823 40.7125C14.2548 41.345 13.9648 42.0825 13.3323 42.3575L9.61731 43.975C9.45481 44.045 9.28481 44.0775 9.11731 44.0775ZM18.4123 40.0375C17.9323 40.0375 17.4698 39.7575 17.2648 39.285C16.9923 38.6525 17.2823 37.915 17.9148 37.64L21.6323 36.025C22.2623 35.75 23.0023 36.04 23.2773 36.6725C23.5498 37.305 23.2598 38.0425 22.6273 38.3175L18.9098 39.9325C18.7498 40.005 18.5798 40.0375 18.4123 40.0375Z" fill="#FEFEFE"/>
<path d="M1.24983 47.5C0.769827 47.5 0.307327 47.22 0.104827 46.7475C-0.170173 46.115 0.117327 45.38 0.752327 45.1025L3.04483 44.105C3.67233 43.8325 4.41483 44.12 4.68733 44.7525C4.96233 45.385 4.67483 46.1225 4.03983 46.3975L1.74733 47.395C1.58733 47.4675 1.41483 47.5 1.24983 47.5Z" fill="#FEFEFE"/>
<path d="M29.9999 60C29.3099 60 28.7499 59.44 28.7499 58.75V26.25C28.7499 25.56 29.3099 25 29.9999 25C30.6899 25 31.2499 25.56 31.2499 26.25V58.75C31.2499 59.44 30.6899 60 29.9999 60Z" fill="#FEFEFE"/>
<path d="M29.9999 23.75C29.3099 23.75 28.7499 23.19 28.7499 22.5V18.75C28.7499 18.06 29.3099 17.5 29.9999 17.5C30.6899 17.5 31.2499 18.06 31.2499 18.75V22.5C31.2499 23.19 30.6899 23.75 29.9999 23.75ZM29.9999 15C29.3099 15 28.7499 14.44 28.7499 13.75V10C28.7499 9.31 29.3099 8.75 29.9999 8.75C30.6899 8.75 31.2499 9.31 31.2499 10V13.75C31.2499 14.44 30.6899 15 29.9999 15ZM29.9999 6.25C29.3099 6.25 28.7499 5.69 28.7499 5V1.25C28.7499 0.56 29.3099 0 29.9999 0C30.6899 0 31.2499 0.56 31.2499 1.25V5C31.2499 5.69 30.6899 6.25 29.9999 6.25Z" fill="#FEFEFE"/>
</g>
<defs>
<clipPath id="clip0_2_181">
<rect width="60" height="60" fill="white"/>
</clipPath>
</defs>
</svg>
